<?xml version="1.0" encoding="utf-8" standalone="no"?>
<!DOCTYPE svg PUBLIC "-//W3C//DTD SVG 1.1//EN"
  "http://www.w3.org/Graphics/SVG/1.1/DTD/svg11.dtd">
<svg xmlns:xlink="http://www.w3.org/1999/xlink" width="711.55125pt" height="355.461156pt" viewBox="0 0 711.55125 355.461156" xmlns="http://www.w3.org/2000/svg" version="1.1">
 <metadata>
  <rdf:RDF xmlns:dc="http://purl.org/dc/elements/1.1/" xmlns:cc="http://creativecommons.org/ns#" xmlns:rdf="http://www.w3.org/1999/02/22-rdf-syntax-ns#">
   <cc:Work>
    <dc:type rdf:resource="http://purl.org/dc/dcmitype/StillImage"/>
    <dc:date>2022-06-02T13:20:39.935047</dc:date>
    <dc:format>image/svg+xml</dc:format>
    <dc:creator>
     <cc:Agent>
      <dc:title>Matplotlib v3.5.2, https://matplotlib.org/</dc:title>
     </cc:Agent>
    </dc:creator>
   </cc:Work>
  </rdf:RDF>
 </metadata>
 <defs>
  <style type="text/css">*{stroke-linejoin: round; stroke-linecap: butt}</style>
 </defs>
 <g id="figure_1">
  <g id="patch_1">
   <path d="M 0 355.461156 
L 711.55125 355.461156 
L 711.55125 0 
L 0 0 
z
" style="fill: #ffffff"/>
  </g>
  <g id="axes_1">
   <g id="patch_2">
    <path d="M 48.90125 326.648 
L 369.47625 326.648 
L 369.47625 48.48 
L 48.90125 48.48 
z
" style="fill: #e5e5e5"/>
   </g>
   <g id="matplotlib.axis_1">
    <g id="xtick_1">
     <g id="line2d_1">
      <path d="M 86.480616 326.648 
L 86.480616 48.48 
" clip-path="url(#p1a7cd08010)" style="fill: none; stroke: #ffffff; stroke-width: 0.8; stroke-linecap: square"/>
     </g>
     <g id="line2d_2">
      <defs>
       <path id="m5a3c6ede7d" d="M 0 0 
L 0 3.5 
" style="stroke: #555555; stroke-width: 0.8"/>
      </defs>
      <g>
       <use xlink:href="#m5a3c6ede7d" x="86.480616" y="326.648" style="fill: #555555; stroke: #555555; stroke-width: 0.8"/>
      </g>
     </g>
     <g id="text_1">
      <!-- Tiled Pyramid TIFF -->
      <g style="fill: #555555" transform="translate(54.341866 338.966906)scale(0.07 -0.07)">
       <defs>
        <path id="DejaVuSans-54" d="M -19 4666 
L 3928 4666 
L 3928 4134 
L 2272 4134 
L 2272 0 
L 1638 0 
L 1638 4134 
L -19 4134 
L -19 4666 
z
" transform="scale(0.015625)"/>
        <path id="DejaVuSans-69" d="M 603 3500 
L 1178 3500 
L 1178 0 
L 603 0 
L 603 3500 
z
M 603 4863 
L 1178 4863 
L 1178 4134 
L 603 4134 
L 603 4863 
z
" transform="scale(0.015625)"/>
        <path id="DejaVuSans-6c" d="M 603 4863 
L 1178 4863 
L 1178 0 
L 603 0 
L 603 4863 
z
" transform="scale(0.015625)"/>
        <path id="DejaVuSans-65" d="M 3597 1894 
L 3597 1613 
L 953 1613 
Q 991 1019 1311 708 
Q 1631 397 2203 397 
Q 2534 397 2845 478 
Q 3156 559 3463 722 
L 3463 178 
Q 3153 47 2828 -22 
Q 2503 -91 2169 -91 
Q 1331 -91 842 396 
Q 353 884 353 1716 
Q 353 2575 817 3079 
Q 1281 3584 2069 3584 
Q 2775 3584 3186 3129 
Q 3597 2675 3597 1894 
z
M 3022 2063 
Q 3016 2534 2758 2815 
Q 2500 3097 2075 3097 
Q 1594 3097 1305 2825 
Q 1016 2553 972 2059 
L 3022 2063 
z
" transform="scale(0.015625)"/>
        <path id="DejaVuSans-64" d="M 2906 2969 
L 2906 4863 
L 3481 4863 
L 3481 0 
L 2906 0 
L 2906 525 
Q 2725 213 2448 61 
Q 2172 -91 1784 -91 
Q 1150 -91 751 415 
Q 353 922 353 1747 
Q 353 2572 751 3078 
Q 1150 3584 1784 3584 
Q 2172 3584 2448 3432 
Q 2725 3281 2906 2969 
z
M 947 1747 
Q 947 1113 1208 752 
Q 1469 391 1925 391 
Q 2381 391 2643 752 
Q 2906 1113 2906 1747 
Q 2906 2381 2643 2742 
Q 2381 3103 1925 3103 
Q 1469 3103 1208 2742 
Q 947 2381 947 1747 
z
" transform="scale(0.015625)"/>
        <path id="DejaVuSans-20" transform="scale(0.015625)"/>
        <path id="DejaVuSans-50" d="M 1259 4147 
L 1259 2394 
L 2053 2394 
Q 2494 2394 2734 2622 
Q 2975 2850 2975 3272 
Q 2975 3691 2734 3919 
Q 2494 4147 2053 4147 
L 1259 4147 
z
M 628 4666 
L 2053 4666 
Q 2838 4666 3239 4311 
Q 3641 3956 3641 3272 
Q 3641 2581 3239 2228 
Q 2838 1875 2053 1875 
L 1259 1875 
L 1259 0 
L 628 0 
L 628 4666 
z
" transform="scale(0.015625)"/>
        <path id="DejaVuSans-79" d="M 2059 -325 
Q 1816 -950 1584 -1140 
Q 1353 -1331 966 -1331 
L 506 -1331 
L 506 -850 
L 844 -850 
Q 1081 -850 1212 -737 
Q 1344 -625 1503 -206 
L 1606 56 
L 191 3500 
L 800 3500 
L 1894 763 
L 2988 3500 
L 3597 3500 
L 2059 -325 
z
" transform="scale(0.015625)"/>
        <path id="DejaVuSans-72" d="M 2631 2963 
Q 2534 3019 2420 3045 
Q 2306 3072 2169 3072 
Q 1681 3072 1420 2755 
Q 1159 2438 1159 1844 
L 1159 0 
L 581 0 
L 581 3500 
L 1159 3500 
L 1159 2956 
Q 1341 3275 1631 3429 
Q 1922 3584 2338 3584 
Q 2397 3584 2469 3576 
Q 2541 3569 2628 3553 
L 2631 2963 
z
" transform="scale(0.015625)"/>
        <path id="DejaVuSans-61" d="M 2194 1759 
Q 1497 1759 1228 1600 
Q 959 1441 959 1056 
Q 959 750 1161 570 
Q 1363 391 1709 391 
Q 2188 391 2477 730 
Q 2766 1069 2766 1631 
L 2766 1759 
L 2194 1759 
z
M 3341 1997 
L 3341 0 
L 2766 0 
L 2766 531 
Q 2569 213 2275 61 
Q 1981 -91 1556 -91 
Q 1019 -91 701 211 
Q 384 513 384 1019 
Q 384 1609 779 1909 
Q 1175 2209 1959 2209 
L 2766 2209 
L 2766 2266 
Q 2766 2663 2505 2880 
Q 2244 3097 1772 3097 
Q 1472 3097 1187 3025 
Q 903 2953 641 2809 
L 641 3341 
Q 956 3463 1253 3523 
Q 1550 3584 1831 3584 
Q 2591 3584 2966 3190 
Q 3341 2797 3341 1997 
z
" transform="scale(0.015625)"/>
        <path id="DejaVuSans-6d" d="M 3328 2828 
Q 3544 3216 3844 3400 
Q 4144 3584 4550 3584 
Q 5097 3584 5394 3201 
Q 5691 2819 5691 2113 
L 5691 0 
L 5113 0 
L 5113 2094 
Q 5113 2597 4934 2840 
Q 4756 3084 4391 3084 
Q 3944 3084 3684 2787 
Q 3425 2491 3425 1978 
L 3425 0 
L 2847 0 
L 2847 2094 
Q 2847 2600 2669 2842 
Q 2491 3084 2119 3084 
Q 1678 3084 1418 2786 
Q 1159 2488 1159 1978 
L 1159 0 
L 581 0 
L 581 3500 
L 1159 3500 
L 1159 2956 
Q 1356 3278 1631 3431 
Q 1906 3584 2284 3584 
Q 2666 3584 2933 3390 
Q 3200 3197 3328 2828 
z
" transform="scale(0.015625)"/>
        <path id="DejaVuSans-49" d="M 628 4666 
L 1259 4666 
L 1259 0 
L 628 0 
L 628 4666 
z
" transform="scale(0.015625)"/>
        <path id="DejaVuSans-46" d="M 628 4666 
L 3309 4666 
L 3309 4134 
L 1259 4134 
L 1259 2759 
L 3109 2759 
L 3109 2228 
L 1259 2228 
L 1259 0 
L 628 0 
L 628 4666 
z
" transform="scale(0.015625)"/>
       </defs>
       <use xlink:href="#DejaVuSans-54"/>
       <use xlink:href="#DejaVuSans-69" x="57.958984"/>
       <use xlink:href="#DejaVuSans-6c" x="85.742188"/>
       <use xlink:href="#DejaVuSans-65" x="113.525391"/>
       <use xlink:href="#DejaVuSans-64" x="175.048828"/>
       <use xlink:href="#DejaVuSans-20" x="238.525391"/>
       <use xlink:href="#DejaVuSans-50" x="270.3125"/>
       <use xlink:href="#DejaVuSans-79" x="330.615234"/>
       <use xlink:href="#DejaVuSans-72" x="389.794922"/>
       <use xlink:href="#DejaVuSans-61" x="430.908203"/>
       <use xlink:href="#DejaVuSans-6d" x="492.1875"/>
       <use xlink:href="#DejaVuSans-69" x="589.599609"/>
       <use xlink:href="#DejaVuSans-64" x="617.382812"/>
       <use xlink:href="#DejaVuSans-20" x="680.859375"/>
       <use xlink:href="#DejaVuSans-54" x="712.646484"/>
       <use xlink:href="#DejaVuSans-49" x="773.730469"/>
       <use xlink:href="#DejaVuSans-46" x="803.222656"/>
       <use xlink:href="#DejaVuSans-46" x="860.742188"/>
      </g>
      <!-- (JPEG Q=90) -->
      <g style="fill: #555555" transform="translate(64.428975 346.805375)scale(0.07 -0.07)">
       <defs>
        <path id="DejaVuSans-28" d="M 1984 4856 
Q 1566 4138 1362 3434 
Q 1159 2731 1159 2009 
Q 1159 1288 1364 580 
Q 1569 -128 1984 -844 
L 1484 -844 
Q 1016 -109 783 600 
Q 550 1309 550 2009 
Q 550 2706 781 3412 
Q 1013 4119 1484 4856 
L 1984 4856 
z
" transform="scale(0.015625)"/>
        <path id="DejaVuSans-4a" d="M 628 4666 
L 1259 4666 
L 1259 325 
Q 1259 -519 939 -900 
Q 619 -1281 -91 -1281 
L -331 -1281 
L -331 -750 
L -134 -750 
Q 284 -750 456 -515 
Q 628 -281 628 325 
L 628 4666 
z
" transform="scale(0.015625)"/>
        <path id="DejaVuSans-45" d="M 628 4666 
L 3578 4666 
L 3578 4134 
L 1259 4134 
L 1259 2753 
L 3481 2753 
L 3481 2222 
L 1259 2222 
L 1259 531 
L 3634 531 
L 3634 0 
L 628 0 
L 628 4666 
z
" transform="scale(0.015625)"/>
        <path id="DejaVuSans-47" d="M 3809 666 
L 3809 1919 
L 2778 1919 
L 2778 2438 
L 4434 2438 
L 4434 434 
Q 4069 175 3628 42 
Q 3188 -91 2688 -91 
Q 1594 -91 976 548 
Q 359 1188 359 2328 
Q 359 3472 976 4111 
Q 1594 4750 2688 4750 
Q 3144 4750 3555 4637 
Q 3966 4525 4313 4306 
L 4313 3634 
Q 3963 3931 3569 4081 
Q 3175 4231 2741 4231 
Q 1884 4231 1454 3753 
Q 1025 3275 1025 2328 
Q 1025 1384 1454 906 
Q 1884 428 2741 428 
Q 3075 428 3337 486 
Q 3600 544 3809 666 
z
" transform="scale(0.015625)"/>
        <path id="DejaVuSans-51" d="M 2522 4238 
Q 1834 4238 1429 3725 
Q 1025 3213 1025 2328 
Q 1025 1447 1429 934 
Q 1834 422 2522 422 
Q 3209 422 3611 934 
Q 4013 1447 4013 2328 
Q 4013 3213 3611 3725 
Q 3209 4238 2522 4238 
z
M 3406 84 
L 4238 -825 
L 3475 -825 
L 2784 -78 
Q 2681 -84 2626 -87 
Q 2572 -91 2522 -91 
Q 1538 -91 948 567 
Q 359 1225 359 2328 
Q 359 3434 948 4092 
Q 1538 4750 2522 4750 
Q 3503 4750 4090 4092 
Q 4678 3434 4678 2328 
Q 4678 1516 4351 937 
Q 4025 359 3406 84 
z
" transform="scale(0.015625)"/>
        <path id="DejaVuSans-3d" d="M 678 2906 
L 4684 2906 
L 4684 2381 
L 678 2381 
L 678 2906 
z
M 678 1631 
L 4684 1631 
L 4684 1100 
L 678 1100 
L 678 1631 
z
" transform="scale(0.015625)"/>
        <path id="DejaVuSans-39" d="M 703 97 
L 703 672 
Q 941 559 1184 500 
Q 1428 441 1663 441 
Q 2288 441 2617 861 
Q 2947 1281 2994 2138 
Q 2813 1869 2534 1725 
Q 2256 1581 1919 1581 
Q 1219 1581 811 2004 
Q 403 2428 403 3163 
Q 403 3881 828 4315 
Q 1253 4750 1959 4750 
Q 2769 4750 3195 4129 
Q 3622 3509 3622 2328 
Q 3622 1225 3098 567 
Q 2575 -91 1691 -91 
Q 1453 -91 1209 -44 
Q 966 3 703 97 
z
M 1959 2075 
Q 2384 2075 2632 2365 
Q 2881 2656 2881 3163 
Q 2881 3666 2632 3958 
Q 2384 4250 1959 4250 
Q 1534 4250 1286 3958 
Q 1038 3666 1038 3163 
Q 1038 2656 1286 2365 
Q 1534 2075 1959 2075 
z
" transform="scale(0.015625)"/>
        <path id="DejaVuSans-30" d="M 2034 4250 
Q 1547 4250 1301 3770 
Q 1056 3291 1056 2328 
Q 1056 1369 1301 889 
Q 1547 409 2034 409 
Q 2525 409 2770 889 
Q 3016 1369 3016 2328 
Q 3016 3291 2770 3770 
Q 2525 4250 2034 4250 
z
M 2034 4750 
Q 2819 4750 3233 4129 
Q 3647 3509 3647 2328 
Q 3647 1150 3233 529 
Q 2819 -91 2034 -91 
Q 1250 -91 836 529 
Q 422 1150 422 2328 
Q 422 3509 836 4129 
Q 1250 4750 2034 4750 
z
" transform="scale(0.015625)"/>
        <path id="DejaVuSans-29" d="M 513 4856 
L 1013 4856 
Q 1481 4119 1714 3412 
Q 1947 2706 1947 2009 
Q 1947 1309 1714 600 
Q 1481 -109 1013 -844 
L 513 -844 
Q 928 -128 1133 580 
Q 1338 1288 1338 2009 
Q 1338 2731 1133 3434 
Q 928 4138 513 4856 
z
" transform="scale(0.015625)"/>
       </defs>
       <use xlink:href="#DejaVuSans-28"/>
       <use xlink:href="#DejaVuSans-4a" x="39.013672"/>
       <use xlink:href="#DejaVuSans-50" x="68.505859"/>
       <use xlink:href="#DejaVuSans-45" x="128.808594"/>
       <use xlink:href="#DejaVuSans-47" x="191.992188"/>
       <use xlink:href="#DejaVuSans-20" x="269.482422"/>
       <use xlink:href="#DejaVuSans-51" x="301.269531"/>
       <use xlink:href="#DejaVuSans-3d" x="379.980469"/>
       <use xlink:href="#DejaVuSans-39" x="463.769531"/>
       <use xlink:href="#DejaVuSans-30" x="527.392578"/>
       <use xlink:href="#DejaVuSans-29" x="591.015625"/>
      </g>
     </g>
    </g>
    <g id="xtick_2">
     <g id="line2d_3">
      <path d="M 147.834683 326.648 
L 147.834683 48.48 
" clip-path="url(#p1a7cd08010)" style="fill: none; stroke: #ffffff; stroke-width: 0.8; stroke-linecap: square"/>
     </g>
     <g id="line2d_4">
      <g>
       <use xlink:href="#m5a3c6ede7d" x="147.834683" y="326.648" style="fill: #555555; stroke: #555555; stroke-width: 0.8"/>
      </g>
     </g>
     <g id="text_2">
      <!-- OpenJPEG JP2 -->
      <g style="fill: #555555" transform="translate(123.937339 338.966906)scale(0.07 -0.07)">
       <defs>
        <path id="DejaVuSans-4f" d="M 2522 4238 
Q 1834 4238 1429 3725 
Q 1025 3213 1025 2328 
Q 1025 1447 1429 934 
Q 1834 422 2522 422 
Q 3209 422 3611 934 
Q 4013 1447 4013 2328 
Q 4013 3213 3611 3725 
Q 3209 4238 2522 4238 
z
M 2522 4750 
Q 3503 4750 4090 4092 
Q 4678 3434 4678 2328 
Q 4678 1225 4090 567 
Q 3503 -91 2522 -91 
Q 1538 -91 948 565 
Q 359 1222 359 2328 
Q 359 3434 948 4092 
Q 1538 4750 2522 4750 
z
" transform="scale(0.015625)"/>
        <path id="DejaVuSans-70" d="M 1159 525 
L 1159 -1331 
L 581 -1331 
L 581 3500 
L 1159 3500 
L 1159 2969 
Q 1341 3281 1617 3432 
Q 1894 3584 2278 3584 
Q 2916 3584 3314 3078 
Q 3713 2572 3713 1747 
Q 3713 922 3314 415 
Q 2916 -91 2278 -91 
Q 1894 -91 1617 61 
Q 1341 213 1159 525 
z
M 3116 1747 
Q 3116 2381 2855 2742 
Q 2594 3103 2138 3103 
Q 1681 3103 1420 2742 
Q 1159 2381 1159 1747 
Q 1159 1113 1420 752 
Q 1681 391 2138 391 
Q 2594 391 2855 752 
Q 3116 1113 3116 1747 
z
" transform="scale(0.015625)"/>
        <path id="DejaVuSans-6e" d="M 3513 2113 
L 3513 0 
L 2938 0 
L 2938 2094 
Q 2938 2591 2744 2837 
Q 2550 3084 2163 3084 
Q 1697 3084 1428 2787 
Q 1159 2491 1159 1978 
L 1159 0 
L 581 0 
L 581 3500 
L 1159 3500 
L 1159 2956 
Q 1366 3272 1645 3428 
Q 1925 3584 2291 3584 
Q 2894 3584 3203 3211 
Q 3513 2838 3513 2113 
z
" transform="scale(0.015625)"/>
        <path id="DejaVuSans-32" d="M 1228 531 
L 3431 531 
L 3431 0 
L 469 0 
L 469 531 
Q 828 903 1448 1529 
Q 2069 2156 2228 2338 
Q 2531 2678 2651 2914 
Q 2772 3150 2772 3378 
Q 2772 3750 2511 3984 
Q 2250 4219 1831 4219 
Q 1534 4219 1204 4116 
Q 875 4013 500 3803 
L 500 4441 
Q 881 4594 1212 4672 
Q 1544 4750 1819 4750 
Q 2544 4750 2975 4387 
Q 3406 4025 3406 3419 
Q 3406 3131 3298 2873 
Q 3191 2616 2906 2266 
Q 2828 2175 2409 1742 
Q 1991 1309 1228 531 
z
" transform="scale(0.015625)"/>
       </defs>
       <use xlink:href="#DejaVuSans-4f"/>
       <use xlink:href="#DejaVuSans-70" x="78.710938"/>
       <use xlink:href="#DejaVuSans-65" x="142.1875"/>
       <use xlink:href="#DejaVuSans-6e" x="203.710938"/>
       <use xlink:href="#DejaVuSans-4a" x="267.089844"/>
       <use xlink:href="#DejaVuSans-50" x="296.582031"/>
       <use xlink:href="#DejaVuSans-45" x="356.884766"/>
       <use xlink:href="#DejaVuSans-47" x="420.068359"/>
       <use xlink:href="#DejaVuSans-20" x="497.558594"/>
       <use xlink:href="#DejaVuSans-4a" x="529.345703"/>
       <use xlink:href="#DejaVuSans-50" x="558.837891"/>
       <use xlink:href="#DejaVuSans-32" x="619.140625"/>
      </g>
      <!-- (r=8) -->
      <g style="fill: #555555" transform="translate(138.504996 346.805375)scale(0.07 -0.07)">
       <defs>
        <path id="DejaVuSans-38" d="M 2034 2216 
Q 1584 2216 1326 1975 
Q 1069 1734 1069 1313 
Q 1069 891 1326 650 
Q 1584 409 2034 409 
Q 2484 409 2743 651 
Q 3003 894 3003 1313 
Q 3003 1734 2745 1975 
Q 2488 2216 2034 2216 
z
M 1403 2484 
Q 997 2584 770 2862 
Q 544 3141 544 3541 
Q 544 4100 942 4425 
Q 1341 4750 2034 4750 
Q 2731 4750 3128 4425 
Q 3525 4100 3525 3541 
Q 3525 3141 3298 2862 
Q 3072 2584 2669 2484 
Q 3125 2378 3379 2068 
Q 3634 1759 3634 1313 
Q 3634 634 3220 271 
Q 2806 -91 2034 -91 
Q 1263 -91 848 271 
Q 434 634 434 1313 
Q 434 1759 690 2068 
Q 947 2378 1403 2484 
z
M 1172 3481 
Q 1172 3119 1398 2916 
Q 1625 2713 2034 2713 
Q 2441 2713 2670 2916 
Q 2900 3119 2900 3481 
Q 2900 3844 2670 4047 
Q 2441 4250 2034 4250 
Q 1625 4250 1398 4047 
Q 1172 3844 1172 3481 
z
" transform="scale(0.015625)"/>
       </defs>
       <use xlink:href="#DejaVuSans-28"/>
       <use xlink:href="#DejaVuSans-72" x="39.013672"/>
       <use xlink:href="#DejaVuSans-3d" x="80.126953"/>
       <use xlink:href="#DejaVuSans-38" x="163.916016"/>
       <use xlink:href="#DejaVuSans-29" x="227.539062"/>
      </g>
     </g>
    </g>
    <g id="xtick_3">
     <g id="line2d_5">
      <path d="M 209.18875 326.648 
L 209.18875 48.48 
" clip-path="url(#p1a7cd08010)" style="fill: none; stroke: #ffffff; stroke-width: 0.8; stroke-linecap: square"/>
     </g>
     <g id="line2d_6">
      <g>
       <use xlink:href="#m5a3c6ede7d" x="209.18875" y="326.648" style="fill: #555555; stroke: #555555; stroke-width: 0.8"/>
      </g>
     </g>
     <g id="text_3">
      <!-- OpenJPEG HTJ2K -->
      <g style="fill: #555555" transform="translate(180.336719 338.966906)scale(0.07 -0.07)">
       <defs>
        <path id="DejaVuSans-48" d="M 628 4666 
L 1259 4666 
L 1259 2753 
L 3553 2753 
L 3553 4666 
L 4184 4666 
L 4184 0 
L 3553 0 
L 3553 2222 
L 1259 2222 
L 1259 0 
L 628 0 
L 628 4666 
z
" transform="scale(0.015625)"/>
        <path id="DejaVuSans-4b" d="M 628 4666 
L 1259 4666 
L 1259 2694 
L 3353 4666 
L 4166 4666 
L 1850 2491 
L 4331 0 
L 3500 0 
L 1259 2247 
L 1259 0 
L 628 0 
L 628 4666 
z
" transform="scale(0.015625)"/>
       </defs>
       <use xlink:href="#DejaVuSans-4f"/>
       <use xlink:href="#DejaVuSans-70" x="78.710938"/>
       <use xlink:href="#DejaVuSans-65" x="142.1875"/>
       <use xlink:href="#DejaVuSans-6e" x="203.710938"/>
       <use xlink:href="#DejaVuSans-4a" x="267.089844"/>
       <use xlink:href="#DejaVuSans-50" x="296.582031"/>
       <use xlink:href="#DejaVuSans-45" x="356.884766"/>
       <use xlink:href="#DejaVuSans-47" x="420.068359"/>
       <use xlink:href="#DejaVuSans-20" x="497.558594"/>
       <use xlink:href="#DejaVuSans-48" x="529.345703"/>
       <use xlink:href="#DejaVuSans-54" x="604.541016"/>
       <use xlink:href="#DejaVuSans-4a" x="665.625"/>
       <use xlink:href="#DejaVuSans-32" x="695.117188"/>
       <use xlink:href="#DejaVuSans-4b" x="758.740234"/>
      </g>
      <!-- (r=8) -->
      <g style="fill: #555555" transform="translate(199.859062 346.805375)scale(0.07 -0.07)">
       <use xlink:href="#DejaVuSans-28"/>
       <use xlink:href="#DejaVuSans-72" x="39.013672"/>
       <use xlink:href="#DejaVuSans-3d" x="80.126953"/>
       <use xlink:href="#DejaVuSans-38" x="163.916016"/>
       <use xlink:href="#DejaVuSans-29" x="227.539062"/>
      </g>
     </g>
    </g>
    <g id="xtick_4">
     <g id="line2d_7">
      <path d="M 270.542817 326.648 
L 270.542817 48.48 
" clip-path="url(#p1a7cd08010)" style="fill: none; stroke: #ffffff; stroke-width: 0.8; stroke-linecap: square"/>
     </g>
     <g id="line2d_8">
      <g>
       <use xlink:href="#m5a3c6ede7d" x="270.542817" y="326.648" style="fill: #555555; stroke: #555555; stroke-width: 0.8"/>
      </g>
     </g>
     <g id="text_4">
      <!-- Kakadu JP2 -->
      <g style="fill: #555555" transform="translate(251.131489 338.966906)scale(0.07 -0.07)">
       <defs>
        <path id="DejaVuSans-6b" d="M 581 4863 
L 1159 4863 
L 1159 1991 
L 2875 3500 
L 3609 3500 
L 1753 1863 
L 3688 0 
L 2938 0 
L 1159 1709 
L 1159 0 
L 581 0 
L 581 4863 
z
" transform="scale(0.015625)"/>
        <path id="DejaVuSans-75" d="M 544 1381 
L 544 3500 
L 1119 3500 
L 1119 1403 
Q 1119 906 1312 657 
Q 1506 409 1894 409 
Q 2359 409 2629 706 
Q 2900 1003 2900 1516 
L 2900 3500 
L 3475 3500 
L 3475 0 
L 2900 0 
L 2900 538 
Q 2691 219 2414 64 
Q 2138 -91 1772 -91 
Q 1169 -91 856 284 
Q 544 659 544 1381 
z
M 1991 3584 
L 1991 3584 
z
" transform="scale(0.015625)"/>
       </defs>
       <use xlink:href="#DejaVuSans-4b"/>
       <use xlink:href="#DejaVuSans-61" x="63.826172"/>
       <use xlink:href="#DejaVuSans-6b" x="125.105469"/>
       <use xlink:href="#DejaVuSans-61" x="181.265625"/>
       <use xlink:href="#DejaVuSans-64" x="242.544922"/>
       <use xlink:href="#DejaVuSans-75" x="306.021484"/>
       <use xlink:href="#DejaVuSans-20" x="369.400391"/>
       <use xlink:href="#DejaVuSans-4a" x="401.1875"/>
       <use xlink:href="#DejaVuSans-50" x="430.679688"/>
       <use xlink:href="#DejaVuSans-32" x="490.982422"/>
      </g>
      <!-- (rate=3) -->
      <g style="fill: #555555" transform="translate(255.542583 346.805375)scale(0.07 -0.07)">
       <defs>
        <path id="DejaVuSans-74" d="M 1172 4494 
L 1172 3500 
L 2356 3500 
L 2356 3053 
L 1172 3053 
L 1172 1153 
Q 1172 725 1289 603 
Q 1406 481 1766 481 
L 2356 481 
L 2356 0 
L 1766 0 
Q 1100 0 847 248 
Q 594 497 594 1153 
L 594 3053 
L 172 3053 
L 172 3500 
L 594 3500 
L 594 4494 
L 1172 4494 
z
" transform="scale(0.015625)"/>
        <path id="DejaVuSans-33" d="M 2597 2516 
Q 3050 2419 3304 2112 
Q 3559 1806 3559 1356 
Q 3559 666 3084 287 
Q 2609 -91 1734 -91 
Q 1441 -91 1130 -33 
Q 819 25 488 141 
L 488 750 
Q 750 597 1062 519 
Q 1375 441 1716 441 
Q 2309 441 2620 675 
Q 2931 909 2931 1356 
Q 2931 1769 2642 2001 
Q 2353 2234 1838 2234 
L 1294 2234 
L 1294 2753 
L 1863 2753 
Q 2328 2753 2575 2939 
Q 2822 3125 2822 3475 
Q 2822 3834 2567 4026 
Q 2313 4219 1838 4219 
Q 1578 4219 1281 4162 
Q 984 4106 628 3988 
L 628 4550 
Q 988 4650 1302 4700 
Q 1616 4750 1894 4750 
Q 2613 4750 3031 4423 
Q 3450 4097 3450 3541 
Q 3450 3153 3228 2886 
Q 3006 2619 2597 2516 
z
" transform="scale(0.015625)"/>
       </defs>
       <use xlink:href="#DejaVuSans-28"/>
       <use xlink:href="#DejaVuSans-72" x="39.013672"/>
       <use xlink:href="#DejaVuSans-61" x="80.126953"/>
       <use xlink:href="#DejaVuSans-74" x="141.40625"/>
       <use xlink:href="#DejaVuSans-65" x="180.615234"/>
       <use xlink:href="#DejaVuSans-3d" x="242.138672"/>
       <use xlink:href="#DejaVuSans-33" x="325.927734"/>
       <use xlink:href="#DejaVuSans-29" x="389.550781"/>
      </g>
     </g>
    </g>
    <g id="xtick_5">
     <g id="line2d_9">
      <path d="M 331.896884 326.648 
L 331.896884 48.48 
" clip-path="url(#p1a7cd08010)" style="fill: none; stroke: #ffffff; stroke-width: 0.8; stroke-linecap: square"/>
     </g>
     <g id="line2d_10">
      <g>
       <use xlink:href="#m5a3c6ede7d" x="331.896884" y="326.648" style="fill: #555555; stroke: #555555; stroke-width: 0.8"/>
      </g>
     </g>
     <g id="text_5">
      <!-- Kakadu HTJ2K -->
      <g style="fill: #555555" transform="translate(307.530868 338.966906)scale(0.07 -0.07)">
       <use xlink:href="#DejaVuSans-4b"/>
       <use xlink:href="#DejaVuSans-61" x="63.826172"/>
       <use xlink:href="#DejaVuSans-6b" x="125.105469"/>
       <use xlink:href="#DejaVuSans-61" x="181.265625"/>
       <use xlink:href="#DejaVuSans-64" x="242.544922"/>
       <use xlink:href="#DejaVuSans-75" x="306.021484"/>
       <use xlink:href="#DejaVuSans-20" x="369.400391"/>
       <use xlink:href="#DejaVuSans-48" x="401.1875"/>
       <use xlink:href="#DejaVuSans-54" x="476.382812"/>
       <use xlink:href="#DejaVuSans-4a" x="537.466797"/>
       <use xlink:href="#DejaVuSans-32" x="566.958984"/>
       <use xlink:href="#DejaVuSans-4b" x="630.582031"/>
      </g>
      <!-- (rate=3) -->
      <g style="fill: #555555" transform="translate(316.89665 346.805375)scale(0.07 -0.07)">
       <use xlink:href="#DejaVuSans-28"/>
       <use xlink:href="#DejaVuSans-72" x="39.013672"/>
       <use xlink:href="#DejaVuSans-61" x="80.126953"/>
       <use xlink:href="#DejaVuSans-74" x="141.40625"/>
       <use xlink:href="#DejaVuSans-65" x="180.615234"/>
       <use xlink:href="#DejaVuSans-3d" x="242.138672"/>
       <use xlink:href="#DejaVuSans-33" x="325.927734"/>
       <use xlink:href="#DejaVuSans-29" x="389.550781"/>
      </g>
     </g>
    </g>
   </g>
   <g id="matplotlib.axis_2">
    <g id="ytick_1">
     <g id="line2d_11">
      <path d="M 48.90125 326.648 
L 369.47625 326.648 
" clip-path="url(#p1a7cd08010)" style="fill: none; stroke: #ffffff; stroke-width: 0.8; stroke-linecap: square"/>
     </g>
     <g id="line2d_12">
      <defs>
       <path id="mdc592cedd2" d="M 0 0 
L -3.5 0 
" style="stroke: #555555; stroke-width: 0.8"/>
      </defs>
      <g>
       <use xlink:href="#mdc592cedd2" x="48.90125" y="326.648" style="fill: #555555; stroke: #555555; stroke-width: 0.8"/>
      </g>
     </g>
     <g id="text_6">
      <!-- 0 -->
      <g style="fill: #555555" transform="translate(35.53875 330.447219)scale(0.1 -0.1)">
       <use xlink:href="#DejaVuSans-30"/>
      </g>
     </g>
    </g>
    <g id="ytick_2">
     <g id="line2d_13">
      <path d="M 48.90125 290.751333 
L 369.47625 290.751333 
" clip-path="url(#p1a7cd08010)" style="fill: none; stroke: #ffffff; stroke-width: 0.8; stroke-linecap: square"/>
     </g>
     <g id="line2d_14">
      <g>
       <use xlink:href="#mdc592cedd2" x="48.90125" y="290.751333" style="fill: #555555; stroke: #555555; stroke-width: 0.8"/>
      </g>
     </g>
     <g id="text_7">
      <!-- 20 -->
      <g style="fill: #555555" transform="translate(29.17625 294.550552)scale(0.1 -0.1)">
       <use xlink:href="#DejaVuSans-32"/>
       <use xlink:href="#DejaVuSans-30" x="63.623047"/>
      </g>
     </g>
    </g>
    <g id="ytick_3">
     <g id="line2d_15">
      <path d="M 48.90125 254.854666 
L 369.47625 254.854666 
" clip-path="url(#p1a7cd08010)" style="fill: none; stroke: #ffffff; stroke-width: 0.8; stroke-linecap: square"/>
     </g>
     <g id="line2d_16">
      <g>
       <use xlink:href="#mdc592cedd2" x="48.90125" y="254.854666" style="fill: #555555; stroke: #555555; stroke-width: 0.8"/>
      </g>
     </g>
     <g id="text_8">
      <!-- 40 -->
      <g style="fill: #555555" transform="translate(29.17625 258.653885)scale(0.1 -0.1)">
       <defs>
        <path id="DejaVuSans-34" d="M 2419 4116 
L 825 1625 
L 2419 1625 
L 2419 4116 
z
M 2253 4666 
L 3047 4666 
L 3047 1625 
L 3713 1625 
L 3713 1100 
L 3047 1100 
L 3047 0 
L 2419 0 
L 2419 1100 
L 313 1100 
L 313 1709 
L 2253 4666 
z
" transform="scale(0.015625)"/>
       </defs>
       <use xlink:href="#DejaVuSans-34"/>
       <use xlink:href="#DejaVuSans-30" x="63.623047"/>
      </g>
     </g>
    </g>
    <g id="ytick_4">
     <g id="line2d_17">
      <path d="M 48.90125 218.957999 
L 369.47625 218.957999 
" clip-path="url(#p1a7cd08010)" style="fill: none; stroke: #ffffff; stroke-width: 0.8; stroke-linecap: square"/>
     </g>
     <g id="line2d_18">
      <g>
       <use xlink:href="#mdc592cedd2" x="48.90125" y="218.957999" style="fill: #555555; stroke: #555555; stroke-width: 0.8"/>
      </g>
     </g>
     <g id="text_9">
      <!-- 60 -->
      <g style="fill: #555555" transform="translate(29.17625 222.757217)scale(0.1 -0.1)">
       <defs>
        <path id="DejaVuSans-36" d="M 2113 2584 
Q 1688 2584 1439 2293 
Q 1191 2003 1191 1497 
Q 1191 994 1439 701 
Q 1688 409 2113 409 
Q 2538 409 2786 701 
Q 3034 994 3034 1497 
Q 3034 2003 2786 2293 
Q 2538 2584 2113 2584 
z
M 3366 4563 
L 3366 3988 
Q 3128 4100 2886 4159 
Q 2644 4219 2406 4219 
Q 1781 4219 1451 3797 
Q 1122 3375 1075 2522 
Q 1259 2794 1537 2939 
Q 1816 3084 2150 3084 
Q 2853 3084 3261 2657 
Q 3669 2231 3669 1497 
Q 3669 778 3244 343 
Q 2819 -91 2113 -91 
Q 1303 -91 875 529 
Q 447 1150 447 2328 
Q 447 3434 972 4092 
Q 1497 4750 2381 4750 
Q 2619 4750 2861 4703 
Q 3103 4656 3366 4563 
z
" transform="scale(0.015625)"/>
       </defs>
       <use xlink:href="#DejaVuSans-36"/>
       <use xlink:href="#DejaVuSans-30" x="63.623047"/>
      </g>
     </g>
    </g>
    <g id="ytick_5">
     <g id="line2d_19">
      <path d="M 48.90125 183.061332 
L 369.47625 183.061332 
" clip-path="url(#p1a7cd08010)" style="fill: none; stroke: #ffffff; stroke-width: 0.8; stroke-linecap: square"/>
     </g>
     <g id="line2d_20">
      <g>
       <use xlink:href="#mdc592cedd2" x="48.90125" y="183.061332" style="fill: #555555; stroke: #555555; stroke-width: 0.8"/>
      </g>
     </g>
     <g id="text_10">
      <!-- 80 -->
      <g style="fill: #555555" transform="translate(29.17625 186.86055)scale(0.1 -0.1)">
       <use xlink:href="#DejaVuSans-38"/>
       <use xlink:href="#DejaVuSans-30" x="63.623047"/>
      </g>
     </g>
    </g>
    <g id="ytick_6">
     <g id="line2d_21">
      <path d="M 48.90125 147.164664 
L 369.47625 147.164664 
" clip-path="url(#p1a7cd08010)" style="fill: none; stroke: #ffffff; stroke-width: 0.8; stroke-linecap: square"/>
     </g>
     <g id="line2d_22">
      <g>
       <use xlink:href="#mdc592cedd2" x="48.90125" y="147.164664" style="fill: #555555; stroke: #555555; stroke-width: 0.8"/>
      </g>
     </g>
     <g id="text_11">
      <!-- 100 -->
      <g style="fill: #555555" transform="translate(22.81375 150.963883)scale(0.1 -0.1)">
       <defs>
        <path id="DejaVuSans-31" d="M 794 531 
L 1825 531 
L 1825 4091 
L 703 3866 
L 703 4441 
L 1819 4666 
L 2450 4666 
L 2450 531 
L 3481 531 
L 3481 0 
L 794 0 
L 794 531 
z
" transform="scale(0.015625)"/>
       </defs>
       <use xlink:href="#DejaVuSans-31"/>
       <use xlink:href="#DejaVuSans-30" x="63.623047"/>
       <use xlink:href="#DejaVuSans-30" x="127.246094"/>
      </g>
     </g>
    </g>
    <g id="ytick_7">
     <g id="line2d_23">
      <path d="M 48.90125 111.267997 
L 369.47625 111.267997 
" clip-path="url(#p1a7cd08010)" style="fill: none; stroke: #ffffff; stroke-width: 0.8; stroke-linecap: square"/>
     </g>
     <g id="line2d_24">
      <g>
       <use xlink:href="#mdc592cedd2" x="48.90125" y="111.267997" style="fill: #555555; stroke: #555555; stroke-width: 0.8"/>
      </g>
     </g>
     <g id="text_12">
      <!-- 120 -->
      <g style="fill: #555555" transform="translate(22.81375 115.067216)scale(0.1 -0.1)">
       <use xlink:href="#DejaVuSans-31"/>
       <use xlink:href="#DejaVuSans-32" x="63.623047"/>
       <use xlink:href="#DejaVuSans-30" x="127.246094"/>
      </g>
     </g>
    </g>
    <g id="ytick_8">
     <g id="line2d_25">
      <path d="M 48.90125 75.37133 
L 369.47625 75.37133 
" clip-path="url(#p1a7cd08010)" style="fill: none; stroke: #ffffff; stroke-width: 0.8; stroke-linecap: square"/>
     </g>
     <g id="line2d_26">
      <g>
       <use xlink:href="#mdc592cedd2" x="48.90125" y="75.37133" style="fill: #555555; stroke: #555555; stroke-width: 0.8"/>
      </g>
     </g>
     <g id="text_13">
      <!-- 140 -->
      <g style="fill: #555555" transform="translate(22.81375 79.170549)scale(0.1 -0.1)">
       <use xlink:href="#DejaVuSans-31"/>
       <use xlink:href="#DejaVuSans-34" x="63.623047"/>
       <use xlink:href="#DejaVuSans-30" x="127.246094"/>
      </g>
     </g>
    </g>
    <g id="text_14">
     <!-- Decoding Time -->
     <g style="fill: #555555" transform="translate(16.318125 232.520875)rotate(-90)scale(0.12 -0.12)">
      <defs>
       <path id="DejaVuSans-44" d="M 1259 4147 
L 1259 519 
L 2022 519 
Q 2988 519 3436 956 
Q 3884 1394 3884 2338 
Q 3884 3275 3436 3711 
Q 2988 4147 2022 4147 
L 1259 4147 
z
M 628 4666 
L 1925 4666 
Q 3281 4666 3915 4102 
Q 4550 3538 4550 2338 
Q 4550 1131 3912 565 
Q 3275 0 1925 0 
L 628 0 
L 628 4666 
z
" transform="scale(0.015625)"/>
       <path id="DejaVuSans-63" d="M 3122 3366 
L 3122 2828 
Q 2878 2963 2633 3030 
Q 2388 3097 2138 3097 
Q 1578 3097 1268 2742 
Q 959 2388 959 1747 
Q 959 1106 1268 751 
Q 1578 397 2138 397 
Q 2388 397 2633 464 
Q 2878 531 3122 666 
L 3122 134 
Q 2881 22 2623 -34 
Q 2366 -91 2075 -91 
Q 1284 -91 818 406 
Q 353 903 353 1747 
Q 353 2603 823 3093 
Q 1294 3584 2113 3584 
Q 2378 3584 2631 3529 
Q 2884 3475 3122 3366 
z
" transform="scale(0.015625)"/>
       <path id="DejaVuSans-6f" d="M 1959 3097 
Q 1497 3097 1228 2736 
Q 959 2375 959 1747 
Q 959 1119 1226 758 
Q 1494 397 1959 397 
Q 2419 397 2687 759 
Q 2956 1122 2956 1747 
Q 2956 2369 2687 2733 
Q 2419 3097 1959 3097 
z
M 1959 3584 
Q 2709 3584 3137 3096 
Q 3566 2609 3566 1747 
Q 3566 888 3137 398 
Q 2709 -91 1959 -91 
Q 1206 -91 779 398 
Q 353 888 353 1747 
Q 353 2609 779 3096 
Q 1206 3584 1959 3584 
z
" transform="scale(0.015625)"/>
       <path id="DejaVuSans-67" d="M 2906 1791 
Q 2906 2416 2648 2759 
Q 2391 3103 1925 3103 
Q 1463 3103 1205 2759 
Q 947 2416 947 1791 
Q 947 1169 1205 825 
Q 1463 481 1925 481 
Q 2391 481 2648 825 
Q 2906 1169 2906 1791 
z
M 3481 434 
Q 3481 -459 3084 -895 
Q 2688 -1331 1869 -1331 
Q 1566 -1331 1297 -1286 
Q 1028 -1241 775 -1147 
L 775 -588 
Q 1028 -725 1275 -790 
Q 1522 -856 1778 -856 
Q 2344 -856 2625 -561 
Q 2906 -266 2906 331 
L 2906 616 
Q 2728 306 2450 153 
Q 2172 0 1784 0 
Q 1141 0 747 490 
Q 353 981 353 1791 
Q 353 2603 747 3093 
Q 1141 3584 1784 3584 
Q 2172 3584 2450 3431 
Q 2728 3278 2906 2969 
L 2906 3500 
L 3481 3500 
L 3481 434 
z
" transform="scale(0.015625)"/>
      </defs>
      <use xlink:href="#DejaVuSans-44"/>
      <use xlink:href="#DejaVuSans-65" x="77.001953"/>
      <use xlink:href="#DejaVuSans-63" x="138.525391"/>
      <use xlink:href="#DejaVuSans-6f" x="193.505859"/>
      <use xlink:href="#DejaVuSans-64" x="254.6875"/>
      <use xlink:href="#DejaVuSans-69" x="318.164062"/>
      <use xlink:href="#DejaVuSans-6e" x="345.947266"/>
      <use xlink:href="#DejaVuSans-67" x="409.326172"/>
      <use xlink:href="#DejaVuSans-20" x="472.802734"/>
      <use xlink:href="#DejaVuSans-54" x="504.589844"/>
      <use xlink:href="#DejaVuSans-69" x="562.548828"/>
      <use xlink:href="#DejaVuSans-6d" x="590.332031"/>
      <use xlink:href="#DejaVuSans-65" x="687.744141"/>
     </g>
    </g>
   </g>
   <g id="patch_3">
    <path d="M 63.472841 326.648 
L 109.488391 326.648 
L 109.488391 324.853167 
L 63.472841 324.853167 
z
" clip-path="url(#p1a7cd08010)" style="fill: #e24a33; opacity: 0.75; stroke: #a9a9a9; stroke-linejoin: miter"/>
   </g>
   <g id="patch_4">
    <path d="M 124.826908 326.648 
L 170.842458 326.648 
L 170.842458 121.916636 
L 124.826908 121.916636 
z
" clip-path="url(#p1a7cd08010)" style="fill: #348abd; opacity: 0.75; stroke: #a9a9a9; stroke-linejoin: miter"/>
   </g>
   <g id="patch_5">
    <path d="M 186.180975 326.648 
L 232.196525 326.648 
L 232.196525 215.36652 
L 186.180975 215.36652 
z
" clip-path="url(#p1a7cd08010)" style="fill: #777777; opacity: 0.75; stroke: #a9a9a9; stroke-linejoin: miter"/>
   </g>
   <g id="patch_6">
    <path d="M 247.535042 326.648 
L 293.550592 326.648 
L 293.550592 310.074152 
L 247.535042 310.074152 
z
" clip-path="url(#p1a7cd08010)" style="fill: #fbc15e; opacity: 0.75; stroke: #a9a9a9; stroke-linejoin: miter"/>
   </g>
   <g id="patch_7">
    <path d="M 308.889109 326.648 
L 354.904659 326.648 
L 354.904659 320.13496 
L 308.889109 320.13496 
z
" clip-path="url(#p1a7cd08010)" style="fill: #fbc15e; opacity: 0.75; stroke: #a9a9a9; stroke-linejoin: miter"/>
   </g>
   <g id="patch_8">
    <path d="M 48.90125 326.648 
L 48.90125 48.48 
" style="fill: none; stroke: #ffffff; stroke-linejoin: miter; stroke-linecap: square"/>
   </g>
   <g id="patch_9">
    <path d="M 369.47625 326.648 
L 369.47625 48.48 
" style="fill: none; stroke: #ffffff; stroke-linejoin: miter; stroke-linecap: square"/>
   </g>
   <g id="patch_10">
    <path d="M 48.90125 326.648 
L 369.47625 326.648 
" style="fill: none; stroke: #ffffff; stroke-linejoin: miter; stroke-linecap: square"/>
   </g>
   <g id="patch_11">
    <path d="M 48.90125 48.48 
L 369.47625 48.48 
" style="fill: none; stroke: #ffffff; stroke-linejoin: miter; stroke-linecap: square"/>
   </g>
   <g id="text_15">
    <!-- Lossy Decoding -->
    <g transform="translate(170.031719 42.48)scale(0.1 -0.1)">
     <defs>
      <path id="DejaVuSans-4c" d="M 628 4666 
L 1259 4666 
L 1259 531 
L 3531 531 
L 3531 0 
L 628 0 
L 628 4666 
z
" transform="scale(0.015625)"/>
      <path id="DejaVuSans-73" d="M 2834 3397 
L 2834 2853 
Q 2591 2978 2328 3040 
Q 2066 3103 1784 3103 
Q 1356 3103 1142 2972 
Q 928 2841 928 2578 
Q 928 2378 1081 2264 
Q 1234 2150 1697 2047 
L 1894 2003 
Q 2506 1872 2764 1633 
Q 3022 1394 3022 966 
Q 3022 478 2636 193 
Q 2250 -91 1575 -91 
Q 1294 -91 989 -36 
Q 684 19 347 128 
L 347 722 
Q 666 556 975 473 
Q 1284 391 1588 391 
Q 1994 391 2212 530 
Q 2431 669 2431 922 
Q 2431 1156 2273 1281 
Q 2116 1406 1581 1522 
L 1381 1569 
Q 847 1681 609 1914 
Q 372 2147 372 2553 
Q 372 3047 722 3315 
Q 1072 3584 1716 3584 
Q 2034 3584 2315 3537 
Q 2597 3491 2834 3397 
z
" transform="scale(0.015625)"/>
     </defs>
     <use xlink:href="#DejaVuSans-4c"/>
     <use xlink:href="#DejaVuSans-6f" x="53.962891"/>
     <use xlink:href="#DejaVuSans-73" x="115.144531"/>
     <use xlink:href="#DejaVuSans-73" x="167.244141"/>
     <use xlink:href="#DejaVuSans-79" x="219.34375"/>
     <use xlink:href="#DejaVuSans-20" x="278.523438"/>
     <use xlink:href="#DejaVuSans-44" x="310.310547"/>
     <use xlink:href="#DejaVuSans-65" x="387.3125"/>
     <use xlink:href="#DejaVuSans-63" x="448.835938"/>
     <use xlink:href="#DejaVuSans-6f" x="503.816406"/>
     <use xlink:href="#DejaVuSans-64" x="564.998047"/>
     <use xlink:href="#DejaVuSans-69" x="628.474609"/>
     <use xlink:href="#DejaVuSans-6e" x="656.257812"/>
     <use xlink:href="#DejaVuSans-67" x="719.636719"/>
    </g>
   </g>
  </g>
  <g id="axes_2">
   <g id="patch_12">
    <path d="M 383.77625 326.648 
L 704.35125 326.648 
L 704.35125 48.48 
L 383.77625 48.48 
z
" style="fill: #e5e5e5"/>
   </g>
   <g id="matplotlib.axis_3">
    <g id="xtick_6">
     <g id="line2d_27">
      <path d="M 421.355616 326.648 
L 421.355616 48.48 
" clip-path="url(#pa302a036fb)" style="fill: none; stroke: #ffffff; stroke-width: 0.8; stroke-linecap: square"/>
     </g>
     <g id="line2d_28">
      <g>
       <use xlink:href="#m5a3c6ede7d" x="421.355616" y="326.648" style="fill: #555555; stroke: #555555; stroke-width: 0.8"/>
      </g>
     </g>
     <g id="text_16">
      <!-- Tiled Pyramid TIFF -->
      <g style="fill: #555555" transform="translate(389.216866 338.966906)scale(0.07 -0.07)">
       <use xlink:href="#DejaVuSans-54"/>
       <use xlink:href="#DejaVuSans-69" x="57.958984"/>
       <use xlink:href="#DejaVuSans-6c" x="85.742188"/>
       <use xlink:href="#DejaVuSans-65" x="113.525391"/>
       <use xlink:href="#DejaVuSans-64" x="175.048828"/>
       <use xlink:href="#DejaVuSans-20" x="238.525391"/>
       <use xlink:href="#DejaVuSans-50" x="270.3125"/>
       <use xlink:href="#DejaVuSans-79" x="330.615234"/>
       <use xlink:href="#DejaVuSans-72" x="389.794922"/>
       <use xlink:href="#DejaVuSans-61" x="430.908203"/>
       <use xlink:href="#DejaVuSans-6d" x="492.1875"/>
       <use xlink:href="#DejaVuSans-69" x="589.599609"/>
       <use xlink:href="#DejaVuSans-64" x="617.382812"/>
       <use xlink:href="#DejaVuSans-20" x="680.859375"/>
       <use xlink:href="#DejaVuSans-54" x="712.646484"/>
       <use xlink:href="#DejaVuSans-49" x="773.730469"/>
       <use xlink:href="#DejaVuSans-46" x="803.222656"/>
       <use xlink:href="#DejaVuSans-46" x="860.742188"/>
      </g>
      <!-- (Deflate) -->
      <g style="fill: #555555" transform="translate(405.900929 346.805375)scale(0.07 -0.07)">
       <defs>
        <path id="DejaVuSans-66" d="M 2375 4863 
L 2375 4384 
L 1825 4384 
Q 1516 4384 1395 4259 
Q 1275 4134 1275 3809 
L 1275 3500 
L 2222 3500 
L 2222 3053 
L 1275 3053 
L 1275 0 
L 697 0 
L 697 3053 
L 147 3053 
L 147 3500 
L 697 3500 
L 697 3744 
Q 697 4328 969 4595 
Q 1241 4863 1831 4863 
L 2375 4863 
z
" transform="scale(0.015625)"/>
       </defs>
       <use xlink:href="#DejaVuSans-28"/>
       <use xlink:href="#DejaVuSans-44" x="39.013672"/>
       <use xlink:href="#DejaVuSans-65" x="116.015625"/>
       <use xlink:href="#DejaVuSans-66" x="177.539062"/>
       <use xlink:href="#DejaVuSans-6c" x="212.744141"/>
       <use xlink:href="#DejaVuSans-61" x="240.527344"/>
       <use xlink:href="#DejaVuSans-74" x="301.806641"/>
       <use xlink:href="#DejaVuSans-65" x="341.015625"/>
       <use xlink:href="#DejaVuSans-29" x="402.539062"/>
      </g>
     </g>
    </g>
    <g id="xtick_7">
     <g id="line2d_29">
      <path d="M 482.709683 326.648 
L 482.709683 48.48 
" clip-path="url(#pa302a036fb)" style="fill: none; stroke: #ffffff; stroke-width: 0.8; stroke-linecap: square"/>
     </g>
     <g id="line2d_30">
      <g>
       <use xlink:href="#m5a3c6ede7d" x="482.709683" y="326.648" style="fill: #555555; stroke: #555555; stroke-width: 0.8"/>
      </g>
     </g>
     <g id="text_17">
      <!-- OpenJPEG JP2 -->
      <g style="fill: #555555" transform="translate(458.812339 338.966906)scale(0.07 -0.07)">
       <use xlink:href="#DejaVuSans-4f"/>
       <use xlink:href="#DejaVuSans-70" x="78.710938"/>
       <use xlink:href="#DejaVuSans-65" x="142.1875"/>
       <use xlink:href="#DejaVuSans-6e" x="203.710938"/>
       <use xlink:href="#DejaVuSans-4a" x="267.089844"/>
       <use xlink:href="#DejaVuSans-50" x="296.582031"/>
       <use xlink:href="#DejaVuSans-45" x="356.884766"/>
       <use xlink:href="#DejaVuSans-47" x="420.068359"/>
       <use xlink:href="#DejaVuSans-20" x="497.558594"/>
       <use xlink:href="#DejaVuSans-4a" x="529.345703"/>
       <use xlink:href="#DejaVuSans-50" x="558.837891"/>
       <use xlink:href="#DejaVuSans-32" x="619.140625"/>
      </g>
     </g>
    </g>
    <g id="xtick_8">
     <g id="line2d_31">
      <path d="M 544.06375 326.648 
L 544.06375 48.48 
" clip-path="url(#pa302a036fb)" style="fill: none; stroke: #ffffff; stroke-width: 0.8; stroke-linecap: square"/>
     </g>
     <g id="line2d_32">
      <g>
       <use xlink:href="#m5a3c6ede7d" x="544.06375" y="326.648" style="fill: #555555; stroke: #555555; stroke-width: 0.8"/>
      </g>
     </g>
     <g id="text_18">
      <!-- OpenJPEG HTJ2K -->
      <g style="fill: #555555" transform="translate(515.211719 338.966906)scale(0.07 -0.07)">
       <use xlink:href="#DejaVuSans-4f"/>
       <use xlink:href="#DejaVuSans-70" x="78.710938"/>
       <use xlink:href="#DejaVuSans-65" x="142.1875"/>
       <use xlink:href="#DejaVuSans-6e" x="203.710938"/>
       <use xlink:href="#DejaVuSans-4a" x="267.089844"/>
       <use xlink:href="#DejaVuSans-50" x="296.582031"/>
       <use xlink:href="#DejaVuSans-45" x="356.884766"/>
       <use xlink:href="#DejaVuSans-47" x="420.068359"/>
       <use xlink:href="#DejaVuSans-20" x="497.558594"/>
       <use xlink:href="#DejaVuSans-48" x="529.345703"/>
       <use xlink:href="#DejaVuSans-54" x="604.541016"/>
       <use xlink:href="#DejaVuSans-4a" x="665.625"/>
       <use xlink:href="#DejaVuSans-32" x="695.117188"/>
       <use xlink:href="#DejaVuSans-4b" x="758.740234"/>
      </g>
     </g>
    </g>
    <g id="xtick_9">
     <g id="line2d_33">
      <path d="M 605.417817 326.648 
L 605.417817 48.48 
" clip-path="url(#pa302a036fb)" style="fill: none; stroke: #ffffff; stroke-width: 0.8; stroke-linecap: square"/>
     </g>
     <g id="line2d_34">
      <g>
       <use xlink:href="#m5a3c6ede7d" x="605.417817" y="326.648" style="fill: #555555; stroke: #555555; stroke-width: 0.8"/>
      </g>
     </g>
     <g id="text_19">
      <!-- Kakadu JP2 -->
      <g style="fill: #555555" transform="translate(586.006489 338.966906)scale(0.07 -0.07)">
       <use xlink:href="#DejaVuSans-4b"/>
       <use xlink:href="#DejaVuSans-61" x="63.826172"/>
       <use xlink:href="#DejaVuSans-6b" x="125.105469"/>
       <use xlink:href="#DejaVuSans-61" x="181.265625"/>
       <use xlink:href="#DejaVuSans-64" x="242.544922"/>
       <use xlink:href="#DejaVuSans-75" x="306.021484"/>
       <use xlink:href="#DejaVuSans-20" x="369.400391"/>
       <use xlink:href="#DejaVuSans-4a" x="401.1875"/>
       <use xlink:href="#DejaVuSans-50" x="430.679688"/>
       <use xlink:href="#DejaVuSans-32" x="490.982422"/>
      </g>
     </g>
    </g>
    <g id="xtick_10">
     <g id="line2d_35">
      <path d="M 666.771884 326.648 
L 666.771884 48.48 
" clip-path="url(#pa302a036fb)" style="fill: none; stroke: #ffffff; stroke-width: 0.8; stroke-linecap: square"/>
     </g>
     <g id="line2d_36">
      <g>
       <use xlink:href="#m5a3c6ede7d" x="666.771884" y="326.648" style="fill: #555555; stroke: #555555; stroke-width: 0.8"/>
      </g>
     </g>
     <g id="text_20">
      <!-- Kakadu HTJ2K -->
      <g style="fill: #555555" transform="translate(642.405868 338.966906)scale(0.07 -0.07)">
       <use xlink:href="#DejaVuSans-4b"/>
       <use xlink:href="#DejaVuSans-61" x="63.826172"/>
       <use xlink:href="#DejaVuSans-6b" x="125.105469"/>
       <use xlink:href="#DejaVuSans-61" x="181.265625"/>
       <use xlink:href="#DejaVuSans-64" x="242.544922"/>
       <use xlink:href="#DejaVuSans-75" x="306.021484"/>
       <use xlink:href="#DejaVuSans-20" x="369.400391"/>
       <use xlink:href="#DejaVuSans-48" x="401.1875"/>
       <use xlink:href="#DejaVuSans-54" x="476.382812"/>
       <use xlink:href="#DejaVuSans-4a" x="537.466797"/>
       <use xlink:href="#DejaVuSans-32" x="566.958984"/>
       <use xlink:href="#DejaVuSans-4b" x="630.582031"/>
      </g>
     </g>
    </g>
   </g>
   <g id="matplotlib.axis_4">
    <g id="ytick_9">
     <g id="line2d_37">
      <path d="M 383.77625 326.648 
L 704.35125 326.648 
" clip-path="url(#pa302a036fb)" style="fill: none; stroke: #ffffff; stroke-width: 0.8; stroke-linecap: square"/>
     </g>
     <g id="line2d_38">
      <g>
       <use xlink:href="#mdc592cedd2" x="383.77625" y="326.648" style="fill: #555555; stroke: #555555; stroke-width: 0.8"/>
      </g>
     </g>
    </g>
    <g id="ytick_10">
     <g id="line2d_39">
      <path d="M 383.77625 290.751333 
L 704.35125 290.751333 
" clip-path="url(#pa302a036fb)" style="fill: none; stroke: #ffffff; stroke-width: 0.8; stroke-linecap: square"/>
     </g>
     <g id="line2d_40">
      <g>
       <use xlink:href="#mdc592cedd2" x="383.77625" y="290.751333" style="fill: #555555; stroke: #555555; stroke-width: 0.8"/>
      </g>
     </g>
    </g>
    <g id="ytick_11">
     <g id="line2d_41">
      <path d="M 383.77625 254.854666 
L 704.35125 254.854666 
" clip-path="url(#pa302a036fb)" style="fill: none; stroke: #ffffff; stroke-width: 0.8; stroke-linecap: square"/>
     </g>
     <g id="line2d_42">
      <g>
       <use xlink:href="#mdc592cedd2" x="383.77625" y="254.854666" style="fill: #555555; stroke: #555555; stroke-width: 0.8"/>
      </g>
     </g>
    </g>
    <g id="ytick_12">
     <g id="line2d_43">
      <path d="M 383.77625 218.957999 
L 704.35125 218.957999 
" clip-path="url(#pa302a036fb)" style="fill: none; stroke: #ffffff; stroke-width: 0.8; stroke-linecap: square"/>
     </g>
     <g id="line2d_44">
      <g>
       <use xlink:href="#mdc592cedd2" x="383.77625" y="218.957999" style="fill: #555555; stroke: #555555; stroke-width: 0.8"/>
      </g>
     </g>
    </g>
    <g id="ytick_13">
     <g id="line2d_45">
      <path d="M 383.77625 183.061332 
L 704.35125 183.061332 
" clip-path="url(#pa302a036fb)" style="fill: none; stroke: #ffffff; stroke-width: 0.8; stroke-linecap: square"/>
     </g>
     <g id="line2d_46">
      <g>
       <use xlink:href="#mdc592cedd2" x="383.77625" y="183.061332" style="fill: #555555; stroke: #555555; stroke-width: 0.8"/>
      </g>
     </g>
    </g>
    <g id="ytick_14">
     <g id="line2d_47">
      <path d="M 383.77625 147.164664 
L 704.35125 147.164664 
" clip-path="url(#pa302a036fb)" style="fill: none; stroke: #ffffff; stroke-width: 0.8; stroke-linecap: square"/>
     </g>
     <g id="line2d_48">
      <g>
       <use xlink:href="#mdc592cedd2" x="383.77625" y="147.164664" style="fill: #555555; stroke: #555555; stroke-width: 0.8"/>
      </g>
     </g>
    </g>
    <g id="ytick_15">
     <g id="line2d_49">
      <path d="M 383.77625 111.267997 
L 704.35125 111.267997 
" clip-path="url(#pa302a036fb)" style="fill: none; stroke: #ffffff; stroke-width: 0.8; stroke-linecap: square"/>
     </g>
     <g id="line2d_50">
      <g>
       <use xlink:href="#mdc592cedd2" x="383.77625" y="111.267997" style="fill: #555555; stroke: #555555; stroke-width: 0.8"/>
      </g>
     </g>
    </g>
    <g id="ytick_16">
     <g id="line2d_51">
      <path d="M 383.77625 75.37133 
L 704.35125 75.37133 
" clip-path="url(#pa302a036fb)" style="fill: none; stroke: #ffffff; stroke-width: 0.8; stroke-linecap: square"/>
     </g>
     <g id="line2d_52">
      <g>
       <use xlink:href="#mdc592cedd2" x="383.77625" y="75.37133" style="fill: #555555; stroke: #555555; stroke-width: 0.8"/>
      </g>
     </g>
    </g>
   </g>
   <g id="patch_13">
    <path d="M 398.347841 326.648 
L 444.363391 326.648 
L 444.363391 322.361635 
L 398.347841 322.361635 
z
" clip-path="url(#pa302a036fb)" style="fill: #e24a33; opacity: 0.75; stroke: #a9a9a9; stroke-linejoin: miter"/>
   </g>
   <g id="patch_14">
    <path d="M 459.701908 326.648 
L 505.717458 326.648 
L 505.717458 61.726095 
L 459.701908 61.726095 
z
" clip-path="url(#pa302a036fb)" style="fill: #348abd; opacity: 0.75; stroke: #a9a9a9; stroke-linejoin: miter"/>
   </g>
   <g id="patch_15">
    <path d="M 521.055975 326.648 
L 567.071525 326.648 
L 567.071525 129.802366 
L 521.055975 129.802366 
z
" clip-path="url(#pa302a036fb)" style="fill: #777777; opacity: 0.75; stroke: #a9a9a9; stroke-linejoin: miter"/>
   </g>
   <g id="patch_16">
    <path d="M 582.410042 326.648 
L 628.425592 326.648 
L 628.425592 305.217145 
L 582.410042 305.217145 
z
" clip-path="url(#pa302a036fb)" style="fill: #777777; opacity: 0.75; stroke: #a9a9a9; stroke-linejoin: miter"/>
   </g>
   <g id="patch_17">
    <path d="M 643.764109 326.648 
L 689.779659 326.648 
L 689.779659 312.072282 
L 643.764109 312.072282 
z
" clip-path="url(#pa302a036fb)" style="fill: #fbc15e; opacity: 0.75; stroke: #a9a9a9; stroke-linejoin: miter"/>
   </g>
   <g id="patch_18">
    <path d="M 383.77625 326.648 
L 383.77625 48.48 
" style="fill: none; stroke: #ffffff; stroke-linejoin: miter; stroke-linecap: square"/>
   </g>
   <g id="patch_19">
    <path d="M 704.35125 326.648 
L 704.35125 48.48 
" style="fill: none; stroke: #ffffff; stroke-linejoin: miter; stroke-linecap: square"/>
   </g>
   <g id="patch_20">
    <path d="M 383.77625 326.648 
L 704.35125 326.648 
" style="fill: none; stroke: #ffffff; stroke-linejoin: miter; stroke-linecap: square"/>
   </g>
   <g id="patch_21">
    <path d="M 383.77625 48.48 
L 704.35125 48.48 
" style="fill: none; stroke: #ffffff; stroke-linejoin: miter; stroke-linecap: square"/>
   </g>
   <g id="text_21">
    <!-- Lossless Decoding -->
    <g transform="translate(498.191094 42.48)scale(0.1 -0.1)">
     <use xlink:href="#DejaVuSans-4c"/>
     <use xlink:href="#DejaVuSans-6f" x="53.962891"/>
     <use xlink:href="#DejaVuSans-73" x="115.144531"/>
     <use xlink:href="#DejaVuSans-73" x="167.244141"/>
     <use xlink:href="#DejaVuSans-6c" x="219.34375"/>
     <use xlink:href="#DejaVuSans-65" x="247.126953"/>
     <use xlink:href="#DejaVuSans-73" x="308.650391"/>
     <use xlink:href="#DejaVuSans-73" x="360.75"/>
     <use xlink:href="#DejaVuSans-20" x="412.849609"/>
     <use xlink:href="#DejaVuSans-44" x="444.636719"/>
     <use xlink:href="#DejaVuSans-65" x="521.638672"/>
     <use xlink:href="#DejaVuSans-63" x="583.162109"/>
     <use xlink:href="#DejaVuSans-6f" x="638.142578"/>
     <use xlink:href="#DejaVuSans-64" x="699.324219"/>
     <use xlink:href="#DejaVuSans-69" x="762.800781"/>
     <use xlink:href="#DejaVuSans-6e" x="790.583984"/>
     <use xlink:href="#DejaVuSans-67" x="853.962891"/>
    </g>
   </g>
  </g>
  <g id="text_22">
   <!-- Average IIPImage Tile Decoding Time for each Format / Decoder -->
   <g transform="translate(162.71625 16.318125)scale(0.12 -0.12)">
    <defs>
     <path id="DejaVuSans-41" d="M 2188 4044 
L 1331 1722 
L 3047 1722 
L 2188 4044 
z
M 1831 4666 
L 2547 4666 
L 4325 0 
L 3669 0 
L 3244 1197 
L 1141 1197 
L 716 0 
L 50 0 
L 1831 4666 
z
" transform="scale(0.015625)"/>
     <path id="DejaVuSans-76" d="M 191 3500 
L 800 3500 
L 1894 563 
L 2988 3500 
L 3597 3500 
L 2284 0 
L 1503 0 
L 191 3500 
z
" transform="scale(0.015625)"/>
     <path id="DejaVuSans-68" d="M 3513 2113 
L 3513 0 
L 2938 0 
L 2938 2094 
Q 2938 2591 2744 2837 
Q 2550 3084 2163 3084 
Q 1697 3084 1428 2787 
Q 1159 2491 1159 1978 
L 1159 0 
L 581 0 
L 581 4863 
L 1159 4863 
L 1159 2956 
Q 1366 3272 1645 3428 
Q 1925 3584 2291 3584 
Q 2894 3584 3203 3211 
Q 3513 2838 3513 2113 
z
" transform="scale(0.015625)"/>
     <path id="DejaVuSans-2f" d="M 1625 4666 
L 2156 4666 
L 531 -594 
L 0 -594 
L 1625 4666 
z
" transform="scale(0.015625)"/>
    </defs>
    <use xlink:href="#DejaVuSans-41"/>
    <use xlink:href="#DejaVuSans-76" x="62.533203"/>
    <use xlink:href="#DejaVuSans-65" x="121.712891"/>
    <use xlink:href="#DejaVuSans-72" x="183.236328"/>
    <use xlink:href="#DejaVuSans-61" x="224.349609"/>
    <use xlink:href="#DejaVuSans-67" x="285.628906"/>
    <use xlink:href="#DejaVuSans-65" x="349.105469"/>
    <use xlink:href="#DejaVuSans-20" x="410.628906"/>
    <use xlink:href="#DejaVuSans-49" x="442.416016"/>
    <use xlink:href="#DejaVuSans-49" x="471.908203"/>
    <use xlink:href="#DejaVuSans-50" x="501.400391"/>
    <use xlink:href="#DejaVuSans-49" x="561.703125"/>
    <use xlink:href="#DejaVuSans-6d" x="591.195312"/>
    <use xlink:href="#DejaVuSans-61" x="688.607422"/>
    <use xlink:href="#DejaVuSans-67" x="749.886719"/>
    <use xlink:href="#DejaVuSans-65" x="813.363281"/>
    <use xlink:href="#DejaVuSans-20" x="874.886719"/>
    <use xlink:href="#DejaVuSans-54" x="906.673828"/>
    <use xlink:href="#DejaVuSans-69" x="964.632812"/>
    <use xlink:href="#DejaVuSans-6c" x="992.416016"/>
    <use xlink:href="#DejaVuSans-65" x="1020.199219"/>
    <use xlink:href="#DejaVuSans-20" x="1081.722656"/>
    <use xlink:href="#DejaVuSans-44" x="1113.509766"/>
    <use xlink:href="#DejaVuSans-65" x="1190.511719"/>
    <use xlink:href="#DejaVuSans-63" x="1252.035156"/>
    <use xlink:href="#DejaVuSans-6f" x="1307.015625"/>
    <use xlink:href="#DejaVuSans-64" x="1368.197266"/>
    <use xlink:href="#DejaVuSans-69" x="1431.673828"/>
    <use xlink:href="#DejaVuSans-6e" x="1459.457031"/>
    <use xlink:href="#DejaVuSans-67" x="1522.835938"/>
    <use xlink:href="#DejaVuSans-20" x="1586.3125"/>
    <use xlink:href="#DejaVuSans-54" x="1618.099609"/>
    <use xlink:href="#DejaVuSans-69" x="1676.058594"/>
    <use xlink:href="#DejaVuSans-6d" x="1703.841797"/>
    <use xlink:href="#DejaVuSans-65" x="1801.253906"/>
    <use xlink:href="#DejaVuSans-20" x="1862.777344"/>
    <use xlink:href="#DejaVuSans-66" x="1894.564453"/>
    <use xlink:href="#DejaVuSans-6f" x="1929.769531"/>
    <use xlink:href="#DejaVuSans-72" x="1990.951172"/>
    <use xlink:href="#DejaVuSans-20" x="2032.064453"/>
    <use xlink:href="#DejaVuSans-65" x="2063.851562"/>
    <use xlink:href="#DejaVuSans-61" x="2125.375"/>
    <use xlink:href="#DejaVuSans-63" x="2186.654297"/>
    <use xlink:href="#DejaVuSans-68" x="2241.634766"/>
    <use xlink:href="#DejaVuSans-20" x="2305.013672"/>
    <use xlink:href="#DejaVuSans-46" x="2336.800781"/>
    <use xlink:href="#DejaVuSans-6f" x="2390.695312"/>
    <use xlink:href="#DejaVuSans-72" x="2451.876953"/>
    <use xlink:href="#DejaVuSans-6d" x="2491.240234"/>
    <use xlink:href="#DejaVuSans-61" x="2588.652344"/>
    <use xlink:href="#DejaVuSans-74" x="2649.931641"/>
    <use xlink:href="#DejaVuSans-20" x="2689.140625"/>
    <use xlink:href="#DejaVuSans-2f" x="2720.927734"/>
    <use xlink:href="#DejaVuSans-20" x="2754.619141"/>
    <use xlink:href="#DejaVuSans-44" x="2786.40625"/>
    <use xlink:href="#DejaVuSans-65" x="2863.408203"/>
    <use xlink:href="#DejaVuSans-63" x="2924.931641"/>
    <use xlink:href="#DejaVuSans-6f" x="2979.912109"/>
    <use xlink:href="#DejaVuSans-64" x="3041.09375"/>
    <use xlink:href="#DejaVuSans-65" x="3104.570312"/>
    <use xlink:href="#DejaVuSans-72" x="3166.09375"/>
   </g>
  </g>
 </g>
 <defs>
  <clipPath id="p1a7cd08010">
   <rect x="48.90125" y="48.48" width="320.575" height="278.168"/>
  </clipPath>
  <clipPath id="pa302a036fb">
   <rect x="383.77625" y="48.48" width="320.575" height="278.168"/>
  </clipPath>
 </defs>
</svg>
